# xmcd
#
# Track frame offsets: 
#        150
#        817
#        23559
#        47249
#        69293
#        88312
#        110635
#        134637
#        158061
#        181542
#        202123
#        225389
#        249388
#        270601
#
# Disc length: 3877 seconds
#
# Revision: 2
# Processed by: cddbd v1.5.2PL0 Copyright (c) Steve Scherf et al.
# Submitted via: ExactAudioCopy v0.99pb4
#
DISCID=ae0f230e
DTITLE=Susanne Fröhlich - [CD 1) Familienpackung
DYEAR=2005
DGENRE=Hörbuch
TTITLE0=Familienpackung (1-1)
TTITLE1=Familienpackung (1-2)
TTITLE2=Familienpackung (1-3)
TTITLE3=Familienpackung (1-4)
TTITLE4=Familienpackung (1-5)
TTITLE5=Familienpackung (1-6)
TTITLE6=Familienpackung (1-7)
TTITLE7=Familienpackung (1-8)
TTITLE8=Familienpackung (1-9)
TTITLE9=Familienpackung (1-10)
TTITLE10=Familienpackung (1-11)
TTITLE11=Familienpackung (1-12)
TTITLE12=Familienpackung (1-13)
TTITLE13=Familienpackung (1-14)
EXTD=
EXTT0=
EXTT1=
EXTT2=
EXTT3=
EXTT4=
EXTT5=
EXTT6=
EXTT7=
EXTT8=
EXTT9=
EXTT10=
EXTT11=
EXTT12=
EXTT13=
PLAYORDER=
